<?xml version="1.0" encoding="UTF-8"?>
<svg id="Camada_1" xmlns="http://www.w3.org/2000/svg" version="1.1" viewBox="0 0 837 611">
  <!-- Generator: Adobe Illustrator 30.0.0, SVG Export Plug-In . SVG Version: 2.1.1 Build 123)  -->
  <defs>
    <style>
      .st0 {
        fill: #b9eed1;
      }

      .st1 {
        fill: #57e190;
      }
    </style>
  </defs>
  <g>
    <path class="st1" d="M298,484h-18.5c-2.41-3.12-3.52-6.72-7.15-8.85-15.93-9.36-30.73,11.34-11.72,19.72,16.16,7.12,39.23,6.66,39.36,30.63.23,39.79-63.81,35.35-67.81,4.73-1.06-8.13,18.29-5.55,19.59-4,.68.82.89,4.19,2.23,6.27,7.63,11.9,35.24,4.73,24.46-11.46-7.79-11.69-37.47-6.13-44.5-26.5-6.16-17.84,4.96-34.65,23.56-36.54s39.58,3.54,40.49,25.99Z"/>
    <path class="st1" d="M422,553h-17.5l-1.29-1.62c-1.54-13.73,1.56-30.46-.3-43.79-2.08-15-22.08-17.38-28.76-5.94-1.01,1.73-3.15,9.19-3.15,10.85v40.5h-17.5l-1.5-1.5v-71l1.5-1.5h15c.28,0,2.33,1.03,2.54,1.68l-.03,5.31c5.05-2.17,8.95-5.62,14.59-6.9,12.04-2.73,23.97.17,31.4,10.41,1.13,1.55,5,9.76,5,11v52.5Z"/>
    <rect class="st1" x="314.95" y="479" width="19.05" height="74"/>
    <path class="st1" d="M321.71,448.21c18.56-4.21,19.49,27.91-1.77,21.35-10.09-3.12-7.64-19.21,1.77-21.35Z"/>
    <g>
      <path class="st1" d="M511,560.5c-.53,4.28-5.97,15.83-9.01,18.99-15.29,15.89-63.15,11.74-62.88-16.39,4.46-1.09,9.76-1.68,14.34-1.01,4.17.6,5.86,5.96,10.65,8.31,9.74,4.78,25.49,1.78,27.67-10.14.44-2.42,1.25-9.43,1.27-11.8.01-1.67-.1-2.43-1.54-3.44-13.49,14.96-39.14,11.39-49.69-5.33-17.82-28.23,4.09-73.1,38.91-59.91,1.92.73,11.57,8.02,12.27,7.22v-7.99h16.51l1.5,1.5v80ZM468.74,495.24c-10.85,1.86-13.26,13.25-15.77,22.17,3.86,9.54,5.12,18.15,16.97,20.14,30.8,5.16,31.07-47.84-1.2-42.31Z"/>
      <path class="st1" d="M685.63,516.43c0,21.17-17.17,38.34-38.34,38.34s-38.34-17.17-38.34-38.34,17.17-38.34,38.34-38.34,38.34,17.17,38.34,38.34ZM641.73,495.23c-17.2,3.52-18.12,39.86,1.85,42.68,30.2,4.27,30.03-49.2-1.85-42.68Z"/>
      <path class="st1" d="M600.58,516.42c0,21.18-17.17,38.35-38.35,38.35s-38.35-17.17-38.35-38.35,17.17-38.35,38.35-38.35,38.35,17.17,38.35,38.35ZM557.73,495.23c-19.1,3.54-18.83,39.77.83,42.7,29.49,4.39,30.81-48.57-.83-42.7Z"/>
    </g>
  </g>
  <path class="st1" d="M773,245c-.22,6.26.68,14.24-6.09,17.36-20.31,9.38-26.35-18.13-4.4-20.15,1.73-.16,4.37,2.15,5.34-.87.78-2.43.14-29.39-1.36-29.36l-36.58,11.42c-2.48,3.21-.03,34.91-.88,42.12-1.02,8.6-11.97,13.14-19.39,9.35-13.54-6.92,1.02-25.97,12.91-20.11l1.46-1.26v-47.5l48-12c.03,7.32-.03,14.68,0,22,.03,7.82-.11,15.68-.02,23.51.02,1.69-.64,4.45,1.02,5.49ZM766.92,207.92c-.36-2.57,2.83-8.9-1.2-8.75l-35.74,10.31-.98,8.52,37.92-10.08Z"/>
  <path class="st1" d="M687,184c-1.2,1.6-1.82,0-2-1.48-.71-5.83.54-13.15-4.33-18.18-2.03-2.1-19.52-9.52-20.66-8.33,1.06,15.69,6.46,32.18,7.87,47.62.74,8.11-.28,15.7-8.87,18.89-28.22,10.45-25.23-29.62,1-25.5l-7-57c4.59-.54,5.59,4.53,8.48,7.01,6.11,5.27,17.07,8.22,21.96,15.04,4.61,6.43,4.81,14.43,3.56,21.94Z"/>
  <path class="st1" d="M783.01,113c1.39-5.08-11.1-18.38-12.06-9.55s-.8,18.48-2.05,26.95c-.58,3.88-1.44,7.89-5.18,9.82-17.03,8.8-19.09-19.06.83-13.46l1.31-1.39,3.14-33.36,3.56.94c2.98,6.24,17.65,12.6,10.45,20.06Z"/>
  <g>
    <path class="st1" d="M277,348.01c-44.73-2.28-86.37-18.98-119.01-49.5-60.66-56.71-80.98-136.55-59.7-216.73,4.87-18.36,15.29-50.8,25.88-66.12,3.83-5.54,8.88-7.96,14.29-2.63,7.86,26.14,16.59,51.65,31.12,74.88,26.58,42.46,67.55,73.49,111.4,96.6,46.99,24.77,134.44,52.5,140,115,6.69,75.14-65.23,109.32-126.95,124.02-13.94,3.32-61,9.37-69.55,16.45-13.13,10.87-29.47,44.08-39.46,59.54-28.74,44.45-61.16,72.13-116.53,75.47-6.25.38-26.01,1.68-28.31-5.68-1.65-5.28,6.84-22.51,9.64-27.99,31.69-62.23,97.59-98.23,162.71-116.29,15.51-24.27,34.1-45.32,54.07-65.93,3.35-3.46,8.64-6.03,10.4-11.09ZM239.01,417.99c55.78-9.59,151.98-26.95,166.34-93.15,14.89-68.68-69.49-95.42-116.39-119.3-62.12-31.63-115.44-70.18-145.81-135.19-4.28-9.15-6.99-20.49-11.07-28.93-3.09-6.39-6.2,4.1-7.54,7.59-30.25,78.65,29.44,133.54,94.79,163.15,8.41,3.81,31.71,8.79,28.72,21.16-1.69,6.96-30.32-5.31-34.71-7.16-40.84-17.18-78.7-43.51-98.87-84.13-1.39-2.79-5.82-16.4-6.47-17.04-.07-.07-2.12-.37-1.96.48l-.06,37.06c2.02,70.56,63.29,98.03,123.83,109.17,7.71,1.42,28.71,2.18,33.74,6.26s2.36,10.31-4.01,11.05c-20.37,2.36-53.7-6.34-73.29-12.75-13.59-4.44-24.57-11.36-36.96-16.04-1.35-.51-4.05-1.97-5.26-.74,23.86,34.49,62.52,60.84,103.96,69.04,20.01,3.96,39.14,1.01,57.44,3.56,5.76.8,7.73,3.5,6.57,9.39-.78,3.95-18.07,14.96-22.45,18.55-12.87,10.54-27,24.57-37.5,37.5-1.83,2.25-14.57,18.97-13.02,20.47ZM199,447.01c-2.88-2.22-37.72,12.84-43.03,15.46-41.49,20.44-80.46,52.03-96.97,96.52,22.4.7,43.93-4.14,63.3-15.19,37.67-21.5,54.89-61.42,76.7-96.79Z"/>
    <path class="st1" d="M543.25,192.74c1.27.7,3.58.12,5.48,1.03,8.4,4.06,16.38,10.56,25.01,13.99,10.58,4.2,39.77,5.68,40.34,19.77.29,7.27-7.39,7.09-12.06,8.99-57.05,23.2-57.61,52.65-85.17,100.87-31.03,54.29-74.03,90.09-139.37,95.59-5.55.47-23.7,1.79-22.32-7.26.72-4.71,6.83-5.66,10.61-6.45,39.11-8.16,67.6-10.91,99.24-38.76,45.69-40.23,55.48-113.45,102.07-143.93,1.68-1.1,16.69-8.56,15.91-9.57-6.57-1.64-13.16-3.36-19.35-6.16-12.28-5.54-21.01-16.06-35.25-17.75-23.8-2.83-41.46,14.7-55.91,30.88-7.54,8.44-25.56,34.36-36.05,35.95-7.76,1.18-10.27-2.62-7.98-9.99,1.12-3.59,10.96-9.74,14.09-12.9,18.97-19.19,30.56-42.5,56.57-54.43,10.04-4.6,31.46-7.16,41.52-2.73,2,.88,2.1,2.57,2.61,2.85Z"/>
    <path class="st1" d="M532.8,220.23l.23,3.72,3.04.6-.99,9.78c-19.96,12.11-24.05-21.32-2.28-14.1Z"/>
  </g>
  <path class="st0" d="M773,245c-1.66-1.04-1-3.79-1.02-5.49-.1-7.83.05-15.69.02-23.51,1.66,1.04,1,3.8,1.02,5.49.08,7.79.26,15.75-.02,23.51Z"/>
</svg>